<svg
    stroke='currentColor'
    fill='currentColor'
    strokeWidth='0'
 version="1.0" xmlns="http://www.w3.org/2000/svg"
 width="260.000000pt" height="178.000000pt" viewBox="0 0 260.000000 178.000000"
 preserveAspectRatio="xMidYMid meet" class="bg-green-500">

<g  transform="translate(0.000000,178.000000) scale(0.100000,-0.100000)"
fill="#000000" stroke="none">
<path d="M1933 1726 c-123 -21 -188 -36 -199 -48 -15 -15 -12 -39 40 -345 59
-350 63 -382 44 -401 -10 -10 -16 -5 -28 20 l-15 33 -251 3 c-242 2 -252 2
-278 -19 -40 -31 -59 -77 -60 -143 -1 -52 2 -60 27 -80 15 -12 27 -32 27 -44
0 -13 20 -53 45 -90 25 -37 45 -74 45 -84 0 -20 -11 -22 -259 -44 l-184 -17
-18 22 c-21 26 -109 286 -109 323 0 14 22 91 50 171 57 166 60 194 25 227 -32
30 -32 40 0 40 18 0 32 11 50 40 16 25 33 40 45 40 29 0 47 42 32 75 -6 14
-19 25 -28 25 -9 0 -27 9 -41 20 -35 27 -91 42 -114 29 -11 -5 -31 -33 -45
-61 -20 -40 -25 -61 -21 -92 7 -47 -6 -76 -33 -76 -10 0 -40 -16 -66 -36 l-47
-36 8 29 c12 45 11 58 -4 58 -8 0 -15 -12 -17 -28 -1 -16 -10 -39 -18 -53 -9
-13 -16 -30 -16 -39 0 -20 -39 -114 -55 -135 -7 -8 -15 -28 -19 -45 -16 -68
-25 -72 -137 -74 -57 -1 -106 -4 -110 -7 -12 -7 -39 51 -39 85 0 16 -5 33 -11
37 -16 9 -59 110 -59 136 0 12 -8 30 -17 40 -10 11 -17 34 -16 53 1 31 -2 35
-23 35 -27 0 -32 -21 -10 -39 8 -7 17 -24 21 -39 8 -33 57 -161 101 -264 23
-54 31 -87 28 -110 -3 -23 1 -43 15 -65 17 -27 27 -33 56 -33 44 0 45 -12 2
-39 -83 -51 -168 -171 -122 -171 21 0 19 -24 -4 -44 -11 -10 -29 -41 -42 -69
-78 -181 60 -387 259 -387 110 0 199 57 254 163 17 32 22 60 22 120 1 42 3 77
6 77 3 0 38 -46 79 -101 52 -70 85 -106 108 -115 25 -11 99 -14 317 -14 l285
0 67 35 c66 34 71 36 163 33 l95 -3 23 -40 c55 -100 144 -155 251 -155 110 0
199 57 254 163 29 56 31 175 3 227 -29 56 -56 88 -97 116 -68 48 -29 52 102
12 36 -11 70 -21 76 -23 6 -2 16 0 23 5 18 11 0 43 -59 105 -54 57 -224 325
-213 335 5 4 86 22 182 39 96 18 183 39 195 47 11 7 31 14 44 14 35 0 59 16
66 45 3 13 -10 120 -29 237 -49 288 -77 348 -195 408 -59 30 -200 25 -427 -14z
m412 -1 c50 -24 105 -80 128 -128 10 -21 36 -142 58 -269 32 -190 37 -235 26
-245 -7 -7 -45 -15 -87 -17 -41 -3 -192 -27 -335 -55 -149 -28 -264 -46 -269
-41 -16 16 -124 690 -112 698 6 4 106 24 221 44 230 40 307 43 370 13z m-1450
-315 c-3 -5 -11 -10 -16 -10 -6 0 -7 5 -4 10 3 6 11 10 16 10 6 0 7 -4 4 -10z
m-5 -54 c0 -3 -4 -8 -10 -11 -5 -3 -10 -1 -10 4 0 6 5 11 10 11 6 0 10 -2 10
-4z m-98 -142 c34 -18 44 -34 21 -34 -10 -1 -28 -6 -41 -13 -27 -15 -192 -298
-199 -342 -4 -25 15 -61 122 -227 97 -152 132 -199 154 -206 20 -7 99 -2 283
18 141 15 261 31 267 34 19 12 12 52 -14 76 -39 37 -125 166 -125 188 0 25 24
50 53 57 167 38 732 155 748 155 12 0 42 -41 95 -127 43 -71 104 -156 137
-191 33 -35 57 -65 54 -68 -3 -4 -34 3 -69 14 -123 40 -140 39 -221 -9 l-72
-43 49 -8 c130 -19 210 -157 161 -276 -36 -84 -106 -126 -201 -120 -74 5 -129
37 -163 98 l-22 40 -141 0 -141 0 -51 -32 -51 -33 -292 -3 c-239 -2 -297 0
-320 12 -17 8 -87 95 -173 215 -126 175 -147 199 -157 185 -11 -16 -20 -16
-81 -5 -71 13 -114 8 -215 -25 -27 -9 -50 -14 -53 -12 -2 3 15 27 38 53 49 55
143 120 200 137 37 11 38 13 38 56 0 37 15 71 96 216 53 94 108 183 122 199
44 46 100 53 164 21z m-574 -431 l-4 -28 -13 26 c-11 22 -11 31 0 50 l14 24 3
-22 c2 -13 2 -35 0 -50z m162 -300 c0 -5 -22 -9 -48 -9 -139 -5 -222 -145
-161 -272 58 -120 233 -135 315 -27 40 53 46 145 13 204 -12 23 -33 48 -46 56
-13 9 -23 20 -23 26 0 24 63 -40 87 -88 84 -173 -98 -347 -275 -262 -50 25
-89 78 -103 140 -20 87 34 185 121 223 36 16 120 22 120 9z m-90 -93 c0 -33
-7 -37 -34 -17 -17 13 -17 14 -1 30 24 25 35 21 35 -13z m150 -15 c0 -8 -4
-15 -10 -15 -5 0 -10 7 -10 15 0 8 5 15 10 15 6 0 10 -7 10 -15z m-93 -81 c-9
-9 -28 6 -21 18 4 6 10 6 17 -1 6 -6 8 -13 4 -17z m-112 4 c30 -13 32 -29 6
-52 -26 -24 -41 -13 -41 30 0 38 0 38 35 22z m235 -39 c0 -28 -19 -61 -31 -53
-14 8 -30 54 -23 65 3 5 16 9 30 9 18 0 24 -5 24 -21z m-122 -61 c7 -7 12 -22
12 -35 0 -27 -34 -32 -65 -9 -19 14 -19 15 -1 35 22 24 37 26 54 9z"/>
<path d="M2140 1440 c0 -5 7 -10 16 -10 8 0 12 5 9 10 -3 6 -10 10 -16 10 -5
0 -9 -4 -9 -10z"/>
<path d="M2037 1433 c-24 -4 -28 -8 -23 -26 3 -12 6 -34 6 -49 0 -24 4 -28 28
-28 57 0 72 10 72 45 0 64 -7 69 -83 58z"/>
<path d="M2145 1400 c-4 -6 6 -10 24 -10 16 0 33 5 36 10 4 6 -6 10 -24 10
-16 0 -33 -4 -36 -10z"/>
<path d="M2200 1373 c-39 -5 -67 -23 -34 -23 38 0 94 13 94 21 0 5 -6 8 -12 7
-7 0 -29 -3 -48 -5z"/>
<path d="M1919 456 c-37 -18 -79 -66 -79 -88 0 -5 17 -8 38 -8 92 -1 192 -56
192 -106 0 -24 0 -24 -114 -24 -63 0 -117 -4 -120 -8 -3 -5 3 -20 13 -35 61
-93 195 -113 279 -42 65 55 83 160 40 236 -47 83 -163 119 -249 75z m41 -61
c0 -27 -1 -28 -24 -19 -28 11 -17 40 17 43 4 1 7 -10 7 -24z m145 -21 c0 -13
-8 -20 -27 -22 -25 -3 -28 0 -28 26 0 16 3 32 7 35 11 12 48 -19 48 -39z m35
-115 c0 -28 -19 -61 -31 -54 -5 4 -9 22 -9 41 0 27 4 34 20 34 14 0 20 -7 20
-21z m-114 -74 c8 -13 13 -29 9 -35 -9 -14 -48 -12 -70 4 -19 14 -19 15 -1 35
25 28 42 26 62 -4z"/>
<path d="M1805 390 l-30 -20 26 0 c18 0 28 6 32 20 3 11 4 20 4 20 -1 0 -15
-9 -32 -20z"/>
<path d="M213 1258 c2 -7 10 -13 17 -13 7 0 15 6 18 13 2 7 -5 12 -18 12 -13
0 -20 -5 -17 -12z"/>
<path d="M293 1258 c2 -7 10 -13 17 -13 7 0 15 6 18 13 2 7 -5 12 -18 12 -13
0 -20 -5 -17 -12z"/>
<path d="M373 1258 c2 -7 10 -13 17 -13 7 0 15 6 18 13 2 7 -5 12 -18 12 -13
0 -20 -5 -17 -12z"/>
<path d="M216 1173 c-8 -21 10 -41 24 -27 11 11 3 44 -10 44 -4 0 -11 -8 -14
-17z"/>
<path d="M296 1173 c-8 -21 10 -41 24 -27 11 11 3 44 -10 44 -4 0 -11 -8 -14
-17z"/>
<path d="M376 1173 c-8 -21 10 -41 24 -27 11 11 3 44 -10 44 -4 0 -11 -8 -14
-17z"/>
<path d="M214 999 c-10 -17 13 -36 27 -22 12 12 4 33 -11 33 -5 0 -12 -5 -16
-11z"/>
<path d="M294 999 c-10 -17 13 -36 27 -22 12 12 4 33 -11 33 -5 0 -12 -5 -16
-11z"/>
<path d="M374 999 c-10 -17 13 -36 27 -22 12 12 4 33 -11 33 -5 0 -12 -5 -16
-11z"/>
</g>
</svg>
